<svg xmlns="http://www.w3.org/2000/svg" viewBox="0 0 72.4 123.1"><defs><style>.cls-1{fill:#0b4761;}</style></defs><g id="Calque_2" data-name="Calque 2"><g id="bleu"><path class="cls-1" d="M38.71,123.1A39.82,39.82,0,0,1,19,118.27a33.61,33.61,0,0,1-13.49-14Q.63,95.18.64,82.54T5.48,60.78a34,34,0,0,1,13.26-14A37.87,37.87,0,0,1,37.93,42q10.91,0,18.64,4.68A30.87,30.87,0,0,1,68.35,59.38a39.43,39.43,0,0,1,4.05,18c0,1.77-.05,3.39-.15,4.84a37.29,37.29,0,0,1-.47,3.9h-63V75.05H66.32l-6.4,1.25q0-11.23-6.16-17.31T37.61,52.9a24.11,24.11,0,0,0-13.18,3.51,23,23,0,0,0-8.58,10.14,38.11,38.11,0,0,0-3,16,37.49,37.49,0,0,0,3.12,15.92,23.05,23.05,0,0,0,8.81,10.21,25.53,25.53,0,0,0,13.65,3.51q8.58,0,14-3.27A24.94,24.94,0,0,0,61,100l9.83,5.78a33.44,33.44,0,0,1-7.56,9.2,33.08,33.08,0,0,1-10.77,6A42.63,42.63,0,0,1,38.71,123.1ZM15.38,0q7,0,11.19,4.18t4.18,11.2a15.24,15.24,0,0,1-4.18,11q-4.18,4.32-11.19,4.32A14.79,14.79,0,0,1,0,15.38q0-7,4.32-11.2A15.25,15.25,0,0,1,15.38,0ZM57,0q7,0,11.19,4.18t4.18,11.2a15.2,15.2,0,0,1-4.18,11Q64,30.75,57,30.75A14.79,14.79,0,0,1,41.65,15.38q0-7,4.32-11.2A15.25,15.25,0,0,1,57,0Z"/></g></g></svg>